<?xml version="1.0" encoding="UTF-8" standalone="no"?>
<!DOCTYPE svg PUBLIC "-//W3C//DTD SVG 1.1//EN"
 "http://www.w3.org/Graphics/SVG/1.1/DTD/svg11.dtd">
<!-- Generated by graphviz version 2.38.0 (20140413.2041)
 -->
<!-- Title: G Pages: 1 -->
<svg width="1320pt" height="726pt"
 viewBox="0.00 0.00 1320.12 726.00" xmlns="http://www.w3.org/2000/svg" xmlns:xlink="http://www.w3.org/1999/xlink">
<g id="graph0" class="graph" transform="scale(1 1) rotate(0) translate(4 722)">
<title>G</title>
<polygon fill="white" stroke="none" points="-4,4 -4,-722 1316.12,-722 1316.12,4 -4,4"/>
<text text-anchor="middle" x="656.058" y="-13" font-family="Times,serif" font-size="30.00">विसर्गसन्धिः</text>
<g id="clust1" class="cluster"><title>cluster_0</title>
<polygon fill="lightgrey" stroke="lightgrey" points="516.615,-358 516.615,-710 1304.12,-710 1304.12,-358 516.615,-358"/>
<text text-anchor="middle" x="910.365" y="-694.8" font-family="Times,serif" font-size="14.00">खरि</text>
</g>
<g id="clust2" class="cluster"><title>cluster_1</title>
<polygon fill="none" stroke="black" points="500.615,-161 500.615,-350 1052.12,-350 1052.12,-161 500.615,-161"/>
<text text-anchor="middle" x="776.365" y="-334.8" font-family="Times,serif" font-size="14.00">अखरि</text>
</g>
<g id="clust3" class="cluster"><title>cluster_leg</title>
<polygon fill="none" stroke="black" points="48.0577,-414 48.0577,-561 360.615,-561 360.615,-414 48.0577,-414"/>
<text text-anchor="middle" x="204.337" y="-533" font-family="Times,serif" font-size="30.00">दर्शयिता</text>
</g>
<!-- a0 -->
<g id="node1" class="node"><title>a0</title>
<g id="a_node1"><a xlink:href="http://avg-sanskrit.org/sutras/8-3-15.html" xlink:title="खरवसानयोर्विसर्जनीयः">
<path fill="white" stroke="white" d="M648.615,-539C648.615,-539 536.615,-539 536.615,-539 530.615,-539 524.615,-533 524.615,-527 524.615,-527 524.615,-515 524.615,-515 524.615,-509 530.615,-503 536.615,-503 536.615,-503 648.615,-503 648.615,-503 654.615,-503 660.615,-509 660.615,-515 660.615,-515 660.615,-527 660.615,-527 660.615,-533 654.615,-539 648.615,-539"/>
<text text-anchor="middle" x="592.615" y="-517.3" font-family="Times,serif" font-size="14.00">खरवसानयोर्विसर्जनीयः</text>
</a>
</g>
</g>
<!-- a6 -->
<g id="node2" class="node"><title>a6</title>
<path fill="white" stroke="white" d="M1041.12,-404C1041.12,-404 916.115,-404 916.115,-404 910.115,-404 904.115,-398 904.115,-392 904.115,-392 904.115,-378 904.115,-378 904.115,-372 910.115,-366 916.115,-366 916.115,-366 1041.12,-366 1041.12,-366 1047.12,-366 1053.12,-372 1053.12,-378 1053.12,-378 1053.12,-392 1053.12,-392 1053.12,-398 1047.12,-404 1041.12,-404"/>
<text text-anchor="middle" x="978.615" y="-388.8" font-family="Times,serif" font-size="14.00">इदुदुपधस्य चाप्रत्ययस्य</text>
<text text-anchor="middle" x="978.615" y="-373.8" font-family="Times,serif" font-size="14.00">(उदा) बहिष्करोति</text>
</g>
<!-- a0&#45;&gt;a6 -->
<g id="edge6" class="edge"><title>a0&#45;&gt;a6</title>
<path fill="none" stroke="black" d="M610.509,-502.785C643.894,-466.79 715.115,-390 715.115,-390 715.115,-390 816.818,-388.063 893.614,-386.6"/>
<polygon fill="black" stroke="black" points="893.864,-390.096 903.796,-386.406 893.731,-383.097 893.864,-390.096"/>
<text text-anchor="middle" x="790.615" y="-438.8" font-family="Times,serif" font-size="14.00">निस्, दुस्,</text>
<text text-anchor="middle" x="790.615" y="-423.8" font-family="Times,serif" font-size="14.00"> बहिस्, आविस्,</text>
<text text-anchor="middle" x="790.615" y="-408.8" font-family="Times,serif" font-size="14.00"> चतुर्, प्रादुस्</text>
<text text-anchor="middle" x="790.615" y="-393.8" font-family="Times,serif" font-size="14.00"> + क/ख/प/फ</text>
</g>
<!-- a5 -->
<g id="node3" class="node"><title>a5</title>
<path fill="white" stroke="white" d="M1020.62,-460C1020.62,-460 936.615,-460 936.615,-460 930.615,-460 924.615,-454 924.615,-448 924.615,-448 924.615,-434 924.615,-434 924.615,-428 930.615,-422 936.615,-422 936.615,-422 1020.62,-422 1020.62,-422 1026.62,-422 1032.62,-428 1032.62,-434 1032.62,-434 1032.62,-448 1032.62,-448 1032.62,-454 1026.62,-460 1020.62,-460"/>
<text text-anchor="middle" x="978.615" y="-444.8" font-family="Times,serif" font-size="14.00">नमस्पुरसोर्गत्योः</text>
<text text-anchor="middle" x="978.615" y="-429.8" font-family="Times,serif" font-size="14.00">(उदा) नमस्करोति</text>
</g>
<!-- a0&#45;&gt;a5 -->
<g id="edge5" class="edge"><title>a0&#45;&gt;a5</title>
<path fill="none" stroke="black" d="M636.794,-502.876C671.716,-488.217 715.115,-470 715.115,-470 715.115,-470 836.634,-456.575 914.312,-447.994"/>
<polygon fill="black" stroke="black" points="914.939,-451.446 924.495,-446.869 914.171,-444.488 914.939,-451.446"/>
<text text-anchor="middle" x="790.615" y="-473.8" font-family="Times,serif" font-size="14.00">नमस् + कृ</text>
</g>
<!-- a4 -->
<g id="node4" class="node"><title>a4</title>
<path fill="white" stroke="white" d="M1061.12,-516C1061.12,-516 896.115,-516 896.115,-516 890.115,-516 884.115,-510 884.115,-504 884.115,-504 884.115,-490 884.115,-490 884.115,-484 890.115,-478 896.115,-478 896.115,-478 1061.12,-478 1061.12,-478 1067.12,-478 1073.12,-484 1073.12,-490 1073.12,-490 1073.12,-504 1073.12,-504 1073.12,-510 1067.12,-516 1061.12,-516"/>
<text text-anchor="middle" x="978.615" y="-500.8" font-family="Times,serif" font-size="14.00">कुप्वोः ≍क≍पौ च</text>
<text text-anchor="middle" x="978.615" y="-485.8" font-family="Times,serif" font-size="14.00">(उदा) रामः≍खादति; रामः≍पठतु</text>
</g>
<!-- a0&#45;&gt;a4 -->
<g id="edge4" class="edge"><title>a0&#45;&gt;a4</title>
<path fill="none" stroke="black" d="M660.943,-516.792C719.763,-513.116 806.088,-507.72 873.757,-503.491"/>
<polygon fill="black" stroke="black" points="874.262,-506.967 884.024,-502.849 873.825,-499.98 874.262,-506.967"/>
<text text-anchor="middle" x="790.615" y="-517.8" font-family="Times,serif" font-size="14.00">क/ख/प/फ</text>
</g>
<!-- a3 -->
<g id="node5" class="node"><title>a3</title>
<path fill="white" stroke="white" d="M1284.12,-567C1284.12,-567 1149.12,-567 1149.12,-567 1143.12,-567 1137.12,-561 1137.12,-555 1137.12,-555 1137.12,-541 1137.12,-541 1137.12,-535 1143.12,-529 1149.12,-529 1149.12,-529 1284.12,-529 1284.12,-529 1290.12,-529 1296.12,-535 1296.12,-541 1296.12,-541 1296.12,-555 1296.12,-555 1296.12,-561 1290.12,-567 1284.12,-567"/>
<text text-anchor="middle" x="1216.62" y="-551.8" font-family="Times,serif" font-size="14.00">वा शरि</text>
<text text-anchor="middle" x="1216.62" y="-536.8" font-family="Times,serif" font-size="14.00">(उदा) बालः शेते/बालश्शेते</text>
</g>
<!-- a0&#45;&gt;a3 -->
<g id="edge3" class="edge"><title>a0&#45;&gt;a3</title>
<path fill="none" stroke="black" stroke-dasharray="5,2" d="M660.762,-536.474C688.862,-542.95 715.115,-549 715.115,-549 715.115,-549 866.115,-549 866.115,-549 866.115,-549 1023.04,-548.551 1126.59,-548.255"/>
<polygon fill="black" stroke="black" points="1126.76,-551.754 1136.75,-548.226 1126.73,-544.754 1126.76,-551.754"/>
<text text-anchor="middle" x="978.615" y="-552.8" font-family="Times,serif" font-size="14.00">शरि</text>
</g>
<!-- a2 -->
<g id="node6" class="node"><title>a2</title>
<path fill="white" stroke="white" d="M1020.12,-623C1020.12,-623 937.115,-623 937.115,-623 931.115,-623 925.115,-617 925.115,-611 925.115,-611 925.115,-597 925.115,-597 925.115,-591 931.115,-585 937.115,-585 937.115,-585 1020.12,-585 1020.12,-585 1026.12,-585 1032.12,-591 1032.12,-597 1032.12,-597 1032.12,-611 1032.12,-611 1032.12,-617 1026.12,-623 1020.12,-623"/>
<text text-anchor="middle" x="978.615" y="-607.8" font-family="Times,serif" font-size="14.00">शर्परे विसर्जनीयः</text>
<text text-anchor="middle" x="978.615" y="-592.8" font-family="Times,serif" font-size="14.00">(उदा) तेजः क्षमा</text>
</g>
<!-- a0&#45;&gt;a2 -->
<g id="edge2" class="edge"><title>a0&#45;&gt;a2</title>
<path fill="none" stroke="black" d="M645.847,-539.056C678.778,-550.439 715.115,-563 715.115,-563 715.115,-563 836.969,-582.032 914.632,-594.163"/>
<polygon fill="black" stroke="black" points="914.39,-597.667 924.81,-595.752 915.47,-590.751 914.39,-597.667"/>
<text text-anchor="middle" x="790.615" y="-589.8" font-family="Times,serif" font-size="14.00">खरि + शर्</text>
</g>
<!-- a1 -->
<g id="node7" class="node"><title>a1</title>
<g id="a_node7"><a xlink:href="http://avg-sanskrit.org/sutras/8-3-34.html" xlink:title="विसर्जनीयस्य सः\n(उदा) बालस्तत्र">
<path fill="white" stroke="white" d="M1020.62,-679C1020.62,-679 936.615,-679 936.615,-679 930.615,-679 924.615,-673 924.615,-667 924.615,-667 924.615,-653 924.615,-653 924.615,-647 930.615,-641 936.615,-641 936.615,-641 1020.62,-641 1020.62,-641 1026.62,-641 1032.62,-647 1032.62,-653 1032.62,-653 1032.62,-667 1032.62,-667 1032.62,-673 1026.62,-679 1020.62,-679"/>
<text text-anchor="middle" x="978.615" y="-663.8" font-family="Times,serif" font-size="14.00">विसर्जनीयस्य सः</text>
<text text-anchor="middle" x="978.615" y="-648.8" font-family="Times,serif" font-size="14.00">(उदा) बालस्तत्र</text>
</a>
</g>
</g>
<!-- a0&#45;&gt;a1 -->
<g id="edge1" class="edge"><title>a0&#45;&gt;a1</title>
<path fill="none" stroke="black" d="M615.618,-539.109C650.631,-567.926 715.115,-621 715.115,-621 715.115,-621 836.634,-639.054 914.312,-650.595"/>
<polygon fill="black" stroke="black" points="914.089,-654.1 924.495,-652.108 915.118,-647.176 914.089,-654.1"/>
<text text-anchor="middle" x="790.615" y="-645.8" font-family="Times,serif" font-size="14.00">खरि</text>
</g>
<!-- a1&#45;&gt;a3 -->
<g id="edge7" class="edge"><title>a1&#45;&gt;a3</title>
<path fill="none" stroke="black" stroke-dasharray="5,2" d="M1032.65,-644.118C1053.75,-637.799 1073.12,-632 1073.12,-632 1073.12,-632 1091.12,-592 1091.12,-592 1091.12,-592 1121.48,-581.27 1152.21,-570.407"/>
<polygon fill="black" stroke="black" points="1153.47,-573.675 1161.73,-567.043 1151.14,-567.075 1153.47,-573.675"/>
<text text-anchor="middle" x="1105.12" y="-595.8" font-family="Times,serif" font-size="14.00">शरि</text>
</g>
<!-- a7 -->
<g id="node8" class="node"><title>a7</title>
<path fill="white" stroke="white" d="M1256.62,-623C1256.62,-623 1176.62,-623 1176.62,-623 1170.62,-623 1164.62,-617 1164.62,-611 1164.62,-611 1164.62,-597 1164.62,-597 1164.62,-591 1170.62,-585 1176.62,-585 1176.62,-585 1256.62,-585 1256.62,-585 1262.62,-585 1268.62,-591 1268.62,-597 1268.62,-597 1268.62,-611 1268.62,-611 1268.62,-617 1262.62,-623 1256.62,-623"/>
<text text-anchor="middle" x="1216.62" y="-607.8" font-family="Times,serif" font-size="14.00">स्तोः श्चुना श्चुः</text>
<text text-anchor="middle" x="1216.62" y="-592.8" font-family="Times,serif" font-size="14.00">(उदा) रामश्च</text>
</g>
<!-- a1&#45;&gt;a7 -->
<g id="edge8" class="edge"><title>a1&#45;&gt;a7</title>
<path fill="none" stroke="black" d="M1032.87,-647.363C1069.06,-638.775 1117.02,-627.395 1154.73,-618.448"/>
<polygon fill="black" stroke="black" points="1155.65,-621.825 1164.58,-616.111 1154.04,-615.014 1155.65,-621.825"/>
<text text-anchor="middle" x="1105.12" y="-635.8" font-family="Times,serif" font-size="14.00">च्/छ्</text>
</g>
<!-- a8 -->
<g id="node9" class="node"><title>a8</title>
<path fill="white" stroke="white" d="M1258.12,-679C1258.12,-679 1175.12,-679 1175.12,-679 1169.12,-679 1163.12,-673 1163.12,-667 1163.12,-667 1163.12,-653 1163.12,-653 1163.12,-647 1169.12,-641 1175.12,-641 1175.12,-641 1258.12,-641 1258.12,-641 1264.12,-641 1270.12,-647 1270.12,-653 1270.12,-653 1270.12,-667 1270.12,-667 1270.12,-673 1264.12,-679 1258.12,-679"/>
<text text-anchor="middle" x="1216.62" y="-663.8" font-family="Times,serif" font-size="14.00">ष्टुना ष्टुः</text>
<text text-anchor="middle" x="1216.62" y="-648.8" font-family="Times,serif" font-size="14.00">(उदा) रामष्टीकते</text>
</g>
<!-- a1&#45;&gt;a8 -->
<g id="edge9" class="edge"><title>a1&#45;&gt;a8</title>
<path fill="none" stroke="black" d="M1032.87,-660C1068.41,-660 1115.3,-660 1152.68,-660"/>
<polygon fill="black" stroke="black" points="1152.96,-663.5 1162.96,-660 1152.96,-656.5 1152.96,-663.5"/>
<text text-anchor="middle" x="1105.12" y="-663.8" font-family="Times,serif" font-size="14.00">ट्/ठ्</text>
</g>
<!-- b0 -->
<g id="node10" class="node"><title>b0</title>
<path fill="grey" stroke="grey" d="M664.615,-319C664.615,-319 520.615,-319 520.615,-319 514.615,-319 508.615,-313 508.615,-307 508.615,-307 508.615,-293 508.615,-293 508.615,-287 514.615,-281 520.615,-281 520.615,-281 664.615,-281 664.615,-281 670.615,-281 676.615,-287 676.615,-293 676.615,-293 676.615,-307 676.615,-307 676.615,-313 670.615,-319 664.615,-319"/>
<text text-anchor="middle" x="592.615" y="-303.8" font-family="Times,serif" font-size="14.00">भोभगोअघोअपूर्वस्य यो ऽशि</text>
<text text-anchor="middle" x="592.615" y="-288.8" font-family="Times,serif" font-size="14.00">(उदा) रामयागच्छति</text>
</g>
<!-- b3 -->
<g id="node13" class="node"><title>b3</title>
<path fill="grey" stroke="grey" d="M1032.12,-263C1032.12,-263 925.115,-263 925.115,-263 919.115,-263 913.115,-257 913.115,-251 913.115,-251 913.115,-237 913.115,-237 913.115,-231 919.115,-225 925.115,-225 925.115,-225 1032.12,-225 1032.12,-225 1038.12,-225 1044.12,-231 1044.12,-237 1044.12,-237 1044.12,-251 1044.12,-251 1044.12,-257 1038.12,-263 1032.12,-263"/>
<text text-anchor="middle" x="978.615" y="-247.8" font-family="Times,serif" font-size="14.00">लोपः शाकल्यस्य</text>
<text text-anchor="middle" x="978.615" y="-232.8" font-family="Times,serif" font-size="14.00">(उदा) राम आगच्छति</text>
</g>
<!-- b0&#45;&gt;b3 -->
<g id="edge10" class="edge"><title>b0&#45;&gt;b3</title>
<path fill="none" stroke="black" stroke-dasharray="5,2" d="M664.083,-280.936C682.409,-275.979 697.115,-272 697.115,-272 697.115,-272 715.115,-265 715.115,-265 715.115,-265 825.231,-256.191 902.823,-249.983"/>
<polygon fill="black" stroke="black" points="903.375,-253.45 913.064,-249.164 902.817,-246.473 903.375,-253.45"/>
<text text-anchor="middle" x="790.615" y="-268.8" font-family="Times,serif" font-size="14.00">अ + आचि/अ(&#45;अत्) + अशि</text>
</g>
<!-- b4 -->
<g id="node14" class="node"><title>b4</title>
<path fill="grey" stroke="grey" d="M1029.62,-319C1029.62,-319 927.615,-319 927.615,-319 921.615,-319 915.615,-313 915.615,-307 915.615,-307 915.615,-293 915.615,-293 915.615,-287 921.615,-281 927.615,-281 927.615,-281 1029.62,-281 1029.62,-281 1035.62,-281 1041.62,-287 1041.62,-293 1041.62,-293 1041.62,-307 1041.62,-307 1041.62,-313 1035.62,-319 1029.62,-319"/>
<text text-anchor="middle" x="978.615" y="-303.8" font-family="Times,serif" font-size="14.00">हलि सर्वेषाम्</text>
<text text-anchor="middle" x="978.615" y="-288.8" font-family="Times,serif" font-size="14.00">(उदा) रामा गच्छन्ति</text>
</g>
<!-- b0&#45;&gt;b4 -->
<g id="edge11" class="edge"><title>b0&#45;&gt;b4</title>
<path fill="none" stroke="black" d="M676.938,-300C745.091,-300 840.484,-300 905.422,-300"/>
<polygon fill="black" stroke="black" points="905.574,-303.5 915.574,-300 905.574,-296.5 905.574,-303.5"/>
<text text-anchor="middle" x="790.615" y="-303.8" font-family="Times,serif" font-size="14.00">अ(&#45;अत्) + हशि</text>
</g>
<!-- b1 -->
<g id="node11" class="node"><title>b1</title>
<path fill="grey" stroke="grey" d="M646.115,-263C646.115,-263 539.115,-263 539.115,-263 533.115,-263 527.115,-257 527.115,-251 527.115,-251 527.115,-237 527.115,-237 527.115,-231 533.115,-225 539.115,-225 539.115,-225 646.115,-225 646.115,-225 652.115,-225 658.115,-231 658.115,-237 658.115,-237 658.115,-251 658.115,-251 658.115,-257 652.115,-263 646.115,-263"/>
<text text-anchor="middle" x="592.615" y="-247.8" font-family="Times,serif" font-size="14.00">अतो रोरप्लुतादप्लुते</text>
<text text-anchor="middle" x="592.615" y="-232.8" font-family="Times,serif" font-size="14.00">(उदा) रामो अगच्छत् </text>
</g>
<!-- b2 -->
<g id="node12" class="node"><title>b2</title>
<path fill="grey" stroke="grey" d="M640.115,-207C640.115,-207 545.115,-207 545.115,-207 539.115,-207 533.115,-201 533.115,-195 533.115,-195 533.115,-181 533.115,-181 533.115,-175 539.115,-169 545.115,-169 545.115,-169 640.115,-169 640.115,-169 646.115,-169 652.115,-175 652.115,-181 652.115,-181 652.115,-195 652.115,-195 652.115,-201 646.115,-207 640.115,-207"/>
<text text-anchor="middle" x="592.615" y="-191.8" font-family="Times,serif" font-size="14.00">हशि च</text>
<text text-anchor="middle" x="592.615" y="-176.8" font-family="Times,serif" font-size="14.00">(उदा) रामो गच्छति</text>
</g>
<!-- c0 -->
<g id="node15" class="node"><title>c0</title>
<path fill="cyan" stroke="cyan" d="M656.115,-150.5C656.115,-150.5 529.115,-150.5 529.115,-150.5 523.115,-150.5 517.115,-144.5 517.115,-138.5 517.115,-138.5 517.115,-109.5 517.115,-109.5 517.115,-103.5 523.115,-97.5 529.115,-97.5 529.115,-97.5 656.115,-97.5 656.115,-97.5 662.115,-97.5 668.115,-103.5 668.115,-109.5 668.115,-109.5 668.115,-138.5 668.115,-138.5 668.115,-144.5 662.115,-150.5 656.115,-150.5"/>
<text text-anchor="middle" x="592.615" y="-135.3" font-family="Times,serif" font-size="14.00">रो रि;</text>
<text text-anchor="middle" x="592.615" y="-120.3" font-family="Times,serif" font-size="14.00"> ढ्रलोपे पूर्वस्य दीर्घोऽणः</text>
<text text-anchor="middle" x="592.615" y="-105.3" font-family="Times,serif" font-size="14.00">(उदा) हरि रमते; हरी रमते</text>
</g>
<!-- d0 -->
<g id="node16" class="node"><title>d0</title>
<path fill="orange" stroke="orange" d="M685.115,-79C685.115,-79 500.115,-79 500.115,-79 494.115,-79 488.115,-73 488.115,-67 488.115,-67 488.115,-53 488.115,-53 488.115,-47 494.115,-41 500.115,-41 500.115,-41 685.115,-41 685.115,-41 691.115,-41 697.115,-47 697.115,-53 697.115,-53 697.115,-67 697.115,-67 697.115,-73 691.115,-79 685.115,-79"/>
<text text-anchor="middle" x="592.615" y="-63.8" font-family="Times,serif" font-size="14.00">एतत्तदोः सुलोपोऽकोरनञ्समासे हलि</text>
<text text-anchor="middle" x="592.615" y="-48.8" font-family="Times,serif" font-size="14.00">(उदा) स पश्यति; एष करोति</text>
</g>
<!-- start0 -->
<g id="node17" class="node"><title>start0</title>
<path fill="none" stroke="black" d="M91.0579,-197.055C91.0579,-197.055 95.5322,-197.142 95.5322,-197.142 95.6867,-197.145 95.9956,-197.152 96.15,-197.157 96.15,-197.157 100.572,-197.286 100.572,-197.286 100.726,-197.291 101.035,-197.301 101.189,-197.308 101.189,-197.308 105.538,-197.479 105.538,-197.479 105.693,-197.485 106.001,-197.499 106.156,-197.507 106.156,-197.507 110.411,-197.72 110.411,-197.72 110.566,-197.728 110.874,-197.745 111.028,-197.754 111.028,-197.754 115.172,-198.008 115.172,-198.008 115.326,-198.017 115.634,-198.038 115.788,-198.049 115.788,-198.049 119.8,-198.342 119.8,-198.342 119.954,-198.353 120.262,-198.378 120.416,-198.391 120.416,-198.391 124.279,-198.722 124.279,-198.722 124.433,-198.735 124.741,-198.763 124.895,-198.778 124.895,-198.778 128.592,-199.145 128.592,-199.145 128.745,-199.161 129.053,-199.193 129.206,-199.211 129.206,-199.211 132.721,-199.612 132.721,-199.612 132.875,-199.63 133.182,-199.667 133.335,-199.687 133.335,-199.687 136.654,-200.121 136.654,-200.121 136.807,-200.141 137.113,-200.183 137.266,-200.206 137.266,-200.206 140.375,-200.669 140.375,-200.669 140.528,-200.692 140.833,-200.741 140.985,-200.766 140.985,-200.766 143.873,-201.256 143.873,-201.256 144.025,-201.282 144.329,-201.337 144.481,-201.367 144.481,-201.367 147.136,-201.88 147.136,-201.88 147.287,-201.909 147.59,-201.972 147.741,-202.005 147.741,-202.005 150.155,-202.539 150.155,-202.539 150.306,-202.572 150.606,-202.643 150.756,-202.681 150.756,-202.681 152.922,-203.23 152.922,-203.23 153.072,-203.268 153.37,-203.349 153.518,-203.393 153.518,-203.393 155.43,-203.952 155.43,-203.952 155.579,-203.995 155.873,-204.088 156.019,-204.138 156.019,-204.138 157.675,-204.702 157.675,-204.702 157.821,-204.751 158.111,-204.859 158.254,-204.916 158.254,-204.916 159.652,-205.477 159.652,-205.477 159.795,-205.534 160.078,-205.659 160.217,-205.726 160.217,-205.726 161.36,-206.274 161.36,-206.274 161.5,-206.341 161.772,-206.487 161.905,-206.565 161.905,-206.565 162.8,-207.091 162.8,-207.091 162.934,-207.17 163.191,-207.34 163.314,-207.433 163.314,-207.433 163.975,-207.925 163.975,-207.925 164.098,-208.017 164.332,-208.218 164.441,-208.327 164.441,-208.327 164.888,-208.772 164.888,-208.772 164.998,-208.88 165.195,-209.117 165.282,-209.244 165.282,-209.244 165.549,-209.631 165.549,-209.631 165.637,-209.759 165.78,-210.03 165.836,-210.174 165.836,-210.174 165.966,-210.509 165.966,-210.509 166.022,-210.653 166.094,-210.95 166.11,-211.104 166.11,-211.104 166.141,-211.411 166.141,-211.411 166.157,-211.565 166.147,-211.871 166.122,-212.023 166.122,-212.023 166.067,-212.345 166.067,-212.345 166.042,-212.497 165.955,-212.792 165.894,-212.934 165.894,-212.934 165.736,-213.303 165.736,-213.303 165.675,-213.445 165.527,-213.715 165.44,-213.843 165.44,-213.843 165.149,-214.273 165.149,-214.273 165.062,-214.401 164.87,-214.642 164.766,-214.756 164.766,-214.756 164.317,-215.244 164.317,-215.244 164.213,-215.358 163.991,-215.573 163.874,-215.674 163.874,-215.674 163.256,-216.21 163.256,-216.21 163.139,-216.312 162.897,-216.503 162.772,-216.594 162.772,-216.594 161.978,-217.169 161.978,-217.169 161.853,-217.26 161.597,-217.432 161.466,-217.514 161.466,-217.514 160.498,-218.118 160.498,-218.118 160.367,-218.2 160.1,-218.356 159.965,-218.43 159.965,-218.43 158.827,-219.055 158.827,-219.055 158.692,-219.129 158.418,-219.272 158.279,-219.34 158.279,-219.34 156.978,-219.978 156.978,-219.978 156.84,-220.046 156.56,-220.177 156.419,-220.239 156.419,-220.239 154.963,-220.885 154.963,-220.885 154.822,-220.948 154.538,-221.069 154.394,-221.127 154.394,-221.127 152.794,-221.775 152.794,-221.775 152.65,-221.833 152.362,-221.945 152.218,-221.998 152.218,-221.998 150.481,-222.644 150.481,-222.644 150.336,-222.698 150.045,-222.802 149.899,-222.852 149.899,-222.852 148.036,-223.491 148.036,-223.491 147.89,-223.542 147.597,-223.639 147.45,-223.685 147.45,-223.685 145.471,-224.315 145.471,-224.315 145.324,-224.361 145.029,-224.452 144.881,-224.496 144.881,-224.496 142.796,-225.111 142.796,-225.111 142.648,-225.155 142.351,-225.24 142.202,-225.281 142.202,-225.281 140.022,-225.88 140.022,-225.88 139.873,-225.921 139.574,-226 139.424,-226.038 139.424,-226.038 137.157,-226.618 137.157,-226.618 137.008,-226.656 136.708,-226.73 136.557,-226.766 136.557,-226.766 134.212,-227.323 134.212,-227.323 134.062,-227.359 133.761,-227.428 133.61,-227.461 133.61,-227.461 131.196,-227.995 131.196,-227.995 131.045,-228.028 130.743,-228.092 130.591,-228.123 130.591,-228.123 128.116,-228.63 128.116,-228.63 127.965,-228.661 127.662,-228.721 127.51,-228.749 127.51,-228.749 124.981,-229.228 124.981,-229.228 124.829,-229.257 124.525,-229.312 124.373,-229.338 124.373,-229.338 121.797,-229.786 121.797,-229.786 121.645,-229.813 121.34,-229.864 121.188,-229.888 121.188,-229.888 118.572,-230.304 118.572,-230.304 118.419,-230.329 118.114,-230.375 117.961,-230.397 117.961,-230.397 115.31,-230.78 115.31,-230.78 115.157,-230.802 114.851,-230.844 114.698,-230.864 114.698,-230.864 112.018,-231.212 112.018,-231.212 111.865,-231.232 111.558,-231.27 111.405,-231.288 111.405,-231.288 108.7,-231.6 108.7,-231.6 108.547,-231.618 108.24,-231.651 108.086,-231.667 108.086,-231.667 105.361,-231.942 105.361,-231.942 105.207,-231.958 104.9,-231.987 104.746,-232 104.746,-232 102.004,-232.238 102.004,-232.238 101.85,-232.251 101.542,-232.276 101.388,-232.287 101.388,-232.287 98.6336,-232.486 98.6336,-232.486 98.4795,-232.498 98.1712,-232.518 98.017,-232.527 98.017,-232.527 95.2519,-232.687 95.2519,-232.687 95.0976,-232.696 94.789,-232.711 94.6347,-232.718 94.6347,-232.718 91.8618,-232.839 91.8618,-232.839 91.7075,-232.845 91.3987,-232.857 91.2442,-232.861 91.2442,-232.861 88.466,-232.942 88.466,-232.942 88.3116,-232.946 88.0027,-232.953 87.8482,-232.955 87.8482,-232.955 85.0669,-232.996 85.0669,-232.996 84.9124,-232.998 84.6034,-233 84.4489,-233 84.4489,-233 81.6665,-233 81.6665,-233 81.512,-233 81.203,-232.998 81.0486,-232.996 81.0486,-232.996 78.2672,-232.955 78.2672,-232.955 78.1127,-232.953 77.8038,-232.946 77.6494,-232.942 77.6494,-232.942 74.8712,-232.861 74.8712,-232.861 74.7167,-232.857 74.408,-232.845 74.2536,-232.839 74.2536,-232.839 71.4807,-232.718 71.4807,-232.718 71.3264,-232.711 71.0178,-232.696 70.8636,-232.687 70.8636,-232.687 68.0984,-232.527 68.0984,-232.527 67.9442,-232.518 67.6359,-232.498 67.4818,-232.486 67.4818,-232.486 64.727,-232.287 64.727,-232.287 64.5729,-232.276 64.2649,-232.251 64.111,-232.238 64.111,-232.238 61.3696,-232 61.3696,-232 61.2156,-231.987 60.908,-231.958 60.7543,-231.942 60.7543,-231.942 58.0295,-231.667 58.0295,-231.667 57.8758,-231.651 57.5686,-231.618 57.4151,-231.6 57.4151,-231.6 54.7107,-231.288 54.7107,-231.288 54.5572,-231.27 54.2506,-231.232 54.0973,-231.212 54.0973,-231.212 51.4175,-230.864 51.4175,-230.864 51.2643,-230.844 50.9582,-230.802 50.8053,-230.78 50.8053,-230.78 48.1547,-230.397 48.1547,-230.397 48.0018,-230.375 47.6963,-230.329 47.5438,-230.304 47.5438,-230.304 44.9278,-229.888 44.9278,-229.888 44.7752,-229.864 44.4704,-229.813 44.3182,-229.786 44.3182,-229.786 41.7425,-229.338 41.7425,-229.338 41.5903,-229.312 41.2863,-229.257 41.1345,-229.228 41.1345,-229.228 38.6056,-228.749 38.6056,-228.749 38.4537,-228.721 38.1506,-228.661 37.9992,-228.63 37.9992,-228.63 35.524,-228.123 35.524,-228.123 35.3726,-228.092 35.0704,-228.028 34.9195,-227.995 34.9195,-227.995 32.5054,-227.461 32.5054,-227.461 32.3546,-227.428 32.0534,-227.359 31.9031,-227.323 31.9031,-227.323 29.5582,-226.766 29.5582,-226.766 29.4079,-226.73 29.1079,-226.656 28.9582,-226.618 28.9582,-226.618 26.6911,-226.038 26.6911,-226.038 26.5414,-226 26.2427,-225.921 26.0937,-225.88 26.0937,-225.88 23.9134,-225.281 23.9134,-225.281 23.7644,-225.24 23.4672,-225.155 23.3191,-225.111 23.3191,-225.111 21.2348,-224.496 21.2348,-224.496 21.0867,-224.452 20.7913,-224.361 20.644,-224.315 20.644,-224.315 18.6657,-223.685 18.6657,-223.685 18.5185,-223.639 18.2251,-223.542 18.079,-223.491 18.079,-223.491 16.2164,-222.852 16.2164,-222.852 16.0703,-222.802 15.7794,-222.698 15.6346,-222.644 15.6346,-222.644 13.8979,-221.998 13.8979,-221.998 13.7531,-221.945 13.4651,-221.833 13.3219,-221.775 13.3219,-221.775 11.721,-221.127 11.721,-221.127 11.5778,-221.069 11.2934,-220.948 11.1521,-220.885 11.1521,-220.885 9.69681,-220.239 9.69681,-220.239 9.55559,-220.177 9.27568,-220.046 9.13698,-219.978 9.13698,-219.978 7.83635,-219.34 7.83635,-219.34 7.69765,-219.272 7.42353,-219.129 7.2881,-219.055 7.2881,-219.055 6.15043,-218.43 6.15043,-218.43 6.01501,-218.356 5.74851,-218.2 5.61743,-218.118 5.61743,-218.118 4.64951,-217.514 4.64951,-217.514 4.51843,-217.432 4.26224,-217.26 4.13712,-217.169 4.13712,-217.169 3.34338,-216.594 3.34338,-216.594 3.21827,-216.503 2.97642,-216.312 2.85969,-216.21 2.85969,-216.21 2.24092,-215.674 2.24092,-215.674 2.1242,-215.573 1.90288,-215.358 1.79829,-215.244 1.79829,-215.244 1.34957,-214.756 1.34957,-214.756 1.24498,-214.642 1.05362,-214.401 0.966849,-214.273 0.966849,-214.273 0.674927,-213.843 0.674927,-213.843 0.588159,-213.715 0.440497,-213.445 0.379602,-213.303 0.379602,-213.303 0.221112,-212.934 0.221112,-212.934 0.160218,-212.792 0.0736234,-212.497 0.0479234,-212.345 0.0479234,-212.345 -0.00634693,-212.023 -0.00634693,-212.023 -0.0320469,-211.871 -0.0418917,-211.565 -0.0260364,-211.411 -0.0260364,-211.411 0.0056742,-211.104 0.0056742,-211.104 0.0215295,-210.95 0.0933091,-210.653 0.149233,-210.509 0.149233,-210.509 0.279117,-210.174 0.279117,-210.174 0.335041,-210.03 0.478575,-209.759 0.566184,-209.631 0.566184,-209.631 0.832976,-209.244 0.832976,-209.244 0.920585,-209.117 1.11774,-208.88 1.22729,-208.772 1.22729,-208.772 1.67405,-208.327 1.67405,-208.327 1.7836,-208.218 2.01702,-208.017 2.1409,-207.925 2.1409,-207.925 2.80092,-207.433 2.80092,-207.433 2.9248,-207.34 3.18184,-207.17 3.31501,-207.091 3.31501,-207.091 4.21008,-206.565 4.21008,-206.565 4.34324,-206.487 4.61568,-206.341 4.75495,-206.274 4.75495,-206.274 5.89804,-205.726 5.89804,-205.726 6.03732,-205.659 6.31999,-205.534 6.46339,-205.477 6.46339,-205.477 7.86134,-204.916 7.86134,-204.916 8.00474,-204.859 8.29439,-204.751 8.44065,-204.702 8.44065,-204.702 10.096,-204.138 10.096,-204.138 10.2423,-204.088 10.5368,-203.995 10.6851,-203.952 10.6851,-203.952 12.5973,-203.393 12.5973,-203.393 12.7456,-203.349 13.0436,-203.268 13.1934,-203.23 13.1934,-203.23 15.3592,-202.681 15.3592,-202.681 15.5089,-202.643 15.8096,-202.572 15.9604,-202.539 15.9604,-202.539 18.3745,-202.005 18.3745,-202.005 18.5254,-201.972 18.8279,-201.909 18.9796,-201.88 18.9796,-201.88 21.6349,-201.367 21.6349,-201.367 21.7865,-201.337 22.0906,-201.282 22.2429,-201.256 22.2429,-201.256 25.1303,-200.766 25.1303,-200.766 25.2826,-200.741 25.5878,-200.692 25.7406,-200.669 25.7406,-200.669 28.8497,-200.206 28.8497,-200.206 29.0025,-200.183 29.3085,-200.141 29.4617,-200.121 29.4617,-200.121 32.7806,-199.687 32.7806,-199.687 32.9338,-199.667 33.2405,-199.63 33.394,-199.612 33.394,-199.612 36.9093,-199.211 36.9093,-199.211 37.0628,-199.193 37.37,-199.161 37.5237,-199.145 37.5237,-199.145 41.2208,-198.778 41.2208,-198.778 41.3745,-198.763 41.6822,-198.735 41.8361,-198.722 41.8361,-198.722 45.6991,-198.391 45.6991,-198.391 45.853,-198.378 46.1611,-198.353 46.3151,-198.342 46.3151,-198.342 50.3272,-198.049 50.3272,-198.049 50.4813,-198.038 50.7896,-198.017 50.9438,-198.008 50.9438,-198.008 55.087,-197.754 55.087,-197.754 55.2412,-197.745 55.5497,-197.728 55.704,-197.72 55.704,-197.72 59.9598,-197.507 59.9598,-197.507 60.1141,-197.499 60.4228,-197.485 60.5771,-197.479 60.5771,-197.479 64.926,-197.308 64.926,-197.308 65.0803,-197.301 65.3891,-197.291 65.5436,-197.286 65.5436,-197.286 69.9654,-197.157 69.9654,-197.157 70.1198,-197.152 70.4287,-197.145 70.5832,-197.142 70.5832,-197.142 75.0576,-197.055 75.0576,-197.055 75.212,-197.052 75.521,-197.048 75.6755,-197.046 75.6755,-197.046 80.1815,-197.003 80.1815,-197.003 80.3359,-197.001 80.6449,-197 80.7994,-197 80.7994,-197 85.316,-197 85.316,-197 85.4705,-197 85.7795,-197.001 85.934,-197.003 85.934,-197.003 90.4399,-197.046 90.4399,-197.046 90.5944,-197.048 90.9034,-197.052 91.0579,-197.055"/>
<text text-anchor="middle" x="83.0577" y="-211.3" font-family="Times,serif" font-size="14.00">&lt;पदम्&gt;: + &lt;पदम्&gt;</text>
</g>
<!-- start1 -->
<g id="node18" class="node"><title>start1</title>
<g id="a_node18"><a xlink:href="http://avg-sanskrit.org/sutras/8-2-66.html" xlink:title="ससजुषो रुः">
<path fill="none" stroke="black" d="M352.115,-233C352.115,-233 299.115,-233 299.115,-233 293.115,-233 287.115,-227 287.115,-221 287.115,-221 287.115,-209 287.115,-209 287.115,-203 293.115,-197 299.115,-197 299.115,-197 352.115,-197 352.115,-197 358.115,-197 364.115,-203 364.115,-209 364.115,-209 364.115,-221 364.115,-221 364.115,-227 358.115,-233 352.115,-233"/>
<text text-anchor="middle" x="325.615" y="-211.3" font-family="Times,serif" font-size="14.00">ससजुषो रुः</text>
</a>
</g>
</g>
<!-- start0&#45;&gt;start1 -->
<g id="edge12" class="edge"><title>start0&#45;&gt;start1</title>
<path fill="none" stroke="black" d="M164.829,-215C201.864,-215 244.52,-215 276.438,-215"/>
<polygon fill="black" stroke="black" points="276.828,-218.5 286.828,-215 276.828,-211.5 276.828,-218.5"/>
</g>
<!-- start1&#45;&gt;a0 -->
<g id="edge13" class="edge"><title>start1&#45;&gt;a0</title>
<path fill="none" stroke="black" d="M340.05,-233.155C356.476,-255.352 382.115,-290 382.115,-290 382.115,-290 513.707,-435.096 568.307,-495.299"/>
<polygon fill="black" stroke="black" points="565.866,-497.818 575.176,-502.874 571.051,-493.115 565.866,-497.818"/>
</g>
<!-- start1&#45;&gt;b0 -->
<g id="edge14" class="edge"><title>start1&#45;&gt;b0</title>
<path fill="none" stroke="black" d="M355.341,-233.115C368.883,-241.655 382.115,-250 382.115,-250 382.115,-250 445.111,-265.035 502.014,-278.615"/>
<polygon fill="black" stroke="black" points="501.275,-282.037 511.815,-280.955 502.901,-275.229 501.275,-282.037"/>
<text text-anchor="middle" x="426.115" y="-274.8" font-family="Times,serif" font-size="14.00">अ + अशि</text>
</g>
<!-- start1&#45;&gt;b1 -->
<g id="edge15" class="edge"><title>start1&#45;&gt;b1</title>
<path fill="none" stroke="black" d="M364.302,-219.124C403.873,-223.455 467.135,-230.378 516.886,-235.822"/>
<polygon fill="black" stroke="black" points="516.642,-239.316 526.964,-236.925 517.404,-232.358 516.642,-239.316"/>
<text text-anchor="middle" x="426.115" y="-234.8" font-family="Times,serif" font-size="14.00">अतः + अति</text>
</g>
<!-- start1&#45;&gt;b2 -->
<g id="edge16" class="edge"><title>start1&#45;&gt;b2</title>
<path fill="none" stroke="black" d="M364.249,-206.185C374.147,-203.866 382.115,-202 382.115,-202 382.115,-202 461.874,-196.67 522.967,-192.587"/>
<polygon fill="black" stroke="black" points="523.235,-196.077 532.979,-191.918 522.768,-189.093 523.235,-196.077"/>
<text text-anchor="middle" x="426.115" y="-205.8" font-family="Times,serif" font-size="14.00">अतः + हशि</text>
</g>
<!-- start1&#45;&gt;c0 -->
<g id="edge17" class="edge"><title>start1&#45;&gt;c0</title>
<path fill="none" stroke="black" d="M353.715,-196.934C367.803,-187.541 382.115,-178 382.115,-178 382.115,-178 448.768,-160.82 506.883,-145.84"/>
<polygon fill="black" stroke="black" points="508.058,-149.152 516.868,-143.267 506.311,-142.373 508.058,-149.152"/>
<text text-anchor="middle" x="426.115" y="-181.8" font-family="Times,serif" font-size="14.00">इण्‌ + रः + रि </text>
</g>
<!-- start1&#45;&gt;d0 -->
<g id="edge18" class="edge"><title>start1&#45;&gt;d0</title>
<path fill="none" stroke="black" d="M339.488,-196.909C355.883,-173.867 382.115,-137 382.115,-137 382.115,-137 488.115,-88 488.115,-88 488.115,-88 497.824,-85.3735 511.294,-81.7293"/>
<polygon fill="black" stroke="black" points="512.409,-85.0537 521.148,-79.0636 510.581,-78.2966 512.409,-85.0537"/>
<text text-anchor="middle" x="426.115" y="-140.8" font-family="Times,serif" font-size="14.00">एतत्तदोः + हलि</text>
</g>
<!-- legend1 -->
<g id="node19" class="node"><title>legend1</title>
<path fill="none" stroke="black" d="M98.0577,-512C98.0577,-512 68.0577,-512 68.0577,-512 62.0577,-512 56.0577,-506 56.0577,-500 56.0577,-500 56.0577,-488 56.0577,-488 56.0577,-482 62.0577,-476 68.0577,-476 68.0577,-476 98.0577,-476 98.0577,-476 104.058,-476 110.058,-482 110.058,-488 110.058,-488 110.058,-500 110.058,-500 110.058,-506 104.058,-512 98.0577,-512"/>
</g>
<!-- legend2 -->
<g id="node20" class="node"><title>legend2</title>
<path fill="none" stroke="black" d="M340.615,-512C340.615,-512 310.615,-512 310.615,-512 304.615,-512 298.615,-506 298.615,-500 298.615,-500 298.615,-488 298.615,-488 298.615,-482 304.615,-476 310.615,-476 310.615,-476 340.615,-476 340.615,-476 346.615,-476 352.615,-482 352.615,-488 352.615,-488 352.615,-500 352.615,-500 352.615,-506 346.615,-512 340.615,-512"/>
</g>
<!-- legend1&#45;&gt;legend2 -->
<g id="edge19" class="edge"><title>legend1&#45;&gt;legend2</title>
<path fill="none" stroke="black" stroke-dasharray="5,2" d="M110.26,-494C153.37,-494 239.347,-494 288.3,-494"/>
<polygon fill="black" stroke="black" points="288.446,-497.5 298.446,-494 288.446,-490.5 288.446,-497.5"/>
<text text-anchor="middle" x="226.615" y="-497.8" font-family="Times,serif" font-size="14.00">वैकल्पिकसूत्रम्</text>
</g>
<!-- legend3 -->
<g id="node21" class="node"><title>legend3</title>
<path fill="none" stroke="black" d="M98.0577,-458C98.0577,-458 68.0577,-458 68.0577,-458 62.0577,-458 56.0577,-452 56.0577,-446 56.0577,-446 56.0577,-434 56.0577,-434 56.0577,-428 62.0577,-422 68.0577,-422 68.0577,-422 98.0577,-422 98.0577,-422 104.058,-422 110.058,-428 110.058,-434 110.058,-434 110.058,-446 110.058,-446 110.058,-452 104.058,-458 98.0577,-458"/>
</g>
<!-- legend4 -->
<g id="node22" class="node"><title>legend4</title>
<path fill="none" stroke="black" d="M340.615,-458C340.615,-458 310.615,-458 310.615,-458 304.615,-458 298.615,-452 298.615,-446 298.615,-446 298.615,-434 298.615,-434 298.615,-428 304.615,-422 310.615,-422 310.615,-422 340.615,-422 340.615,-422 346.615,-422 352.615,-428 352.615,-434 352.615,-434 352.615,-446 352.615,-446 352.615,-452 346.615,-458 340.615,-458"/>
</g>
<!-- legend3&#45;&gt;legend4 -->
<g id="edge20" class="edge"><title>legend3&#45;&gt;legend4</title>
<path fill="none" stroke="black" d="M110.26,-440C153.37,-440 239.347,-440 288.3,-440"/>
<polygon fill="black" stroke="black" points="288.446,-443.5 298.446,-440 288.446,-436.5 288.446,-443.5"/>
<text text-anchor="middle" x="226.615" y="-443.8" font-family="Times,serif" font-size="14.00">नित्यसूत्रम्</text>
</g>
</g>
</svg>
