<?xml version="1.0" encoding="UTF-8" standalone="no"?>
<!DOCTYPE svg PUBLIC "-//W3C//DTD SVG 1.1//EN"
 "http://www.w3.org/Graphics/SVG/1.1/DTD/svg11.dtd">
<!-- Generated by graphviz version 2.38.0 (20140413.2041)
 -->
<!-- Title: G Pages: 1 -->
<svg width="1158pt" height="692pt"
 viewBox="0.00 0.00 1158.12 692.00" xmlns="http://www.w3.org/2000/svg" xmlns:xlink="http://www.w3.org/1999/xlink">
<g id="graph0" class="graph" transform="scale(1 1) rotate(0) translate(4 688)">
<title>G</title>
<polygon fill="white" stroke="none" points="-4,4 -4,-688 1154.12,-688 1154.12,4 -4,4"/>
<text text-anchor="middle" x="575.058" y="-13" font-family="Times,serif" font-size="30.00">विसर्गसन्धिः</text>
<g id="clust1" class="cluster"><title>cluster_0</title>
<polygon fill="lightgrey" stroke="lightgrey" points="516.615,-334 516.615,-676 1142.12,-676 1142.12,-334 516.615,-334"/>
<text text-anchor="middle" x="829.365" y="-660.8" font-family="Times,serif" font-size="14.00">खरि</text>
</g>
<g id="clust2" class="cluster"><title>cluster_1</title>
<polygon fill="none" stroke="black" points="500.615,-143 500.615,-326 953.615,-326 953.615,-143 500.615,-143"/>
<text text-anchor="middle" x="727.115" y="-310.8" font-family="Times,serif" font-size="14.00">अखरि</text>
</g>
<g id="clust3" class="cluster"><title>cluster_leg</title>
<polygon fill="none" stroke="black" points="48.0577,-388 48.0577,-535 360.615,-535 360.615,-388 48.0577,-388"/>
<text text-anchor="middle" x="204.337" y="-507" font-family="Times,serif" font-size="30.00">दर्शयिता</text>
</g>
<!-- a0 -->
<g id="node1" class="node"><title>a0</title>
<g id="a_node1"><a xlink:href="http://avg-sanskrit.org/sutras/8-3-15.html" xlink:title="खरवसानयोर्विसर्जनीयः">
<path fill="white" stroke="white" d="M648.615,-499C648.615,-499 536.615,-499 536.615,-499 530.615,-499 524.615,-493 524.615,-487 524.615,-487 524.615,-475 524.615,-475 524.615,-469 530.615,-463 536.615,-463 536.615,-463 648.615,-463 648.615,-463 654.615,-463 660.615,-469 660.615,-475 660.615,-475 660.615,-487 660.615,-487 660.615,-493 654.615,-499 648.615,-499"/>
<text text-anchor="middle" x="592.615" y="-477.3" font-family="Times,serif" font-size="14.00">खरवसानयोर्विसर्जनीयः</text>
</a>
</g>
</g>
<!-- a6 -->
<g id="node2" class="node"><title>a6</title>
<path fill="white" stroke="white" d="M954.115,-378C954.115,-378 829.115,-378 829.115,-378 823.115,-378 817.115,-372 817.115,-366 817.115,-366 817.115,-354 817.115,-354 817.115,-348 823.115,-342 829.115,-342 829.115,-342 954.115,-342 954.115,-342 960.115,-342 966.115,-348 966.115,-354 966.115,-354 966.115,-366 966.115,-366 966.115,-372 960.115,-378 954.115,-378"/>
<text text-anchor="middle" x="891.615" y="-356.3" font-family="Times,serif" font-size="14.00">इदुदुपधस्य चाप्रत्ययस्य</text>
</g>
<!-- a0&#45;&gt;a6 -->
<g id="edge6" class="edge"><title>a0&#45;&gt;a6</title>
<path fill="none" stroke="black" d="M613.952,-462.756C648.54,-431.726 715.115,-372 715.115,-372 715.115,-372 761.622,-368.82 806.755,-365.734"/>
<polygon fill="black" stroke="black" points="807.213,-369.211 816.95,-365.037 806.735,-362.227 807.213,-369.211"/>
<text text-anchor="middle" x="757.115" y="-420.8" font-family="Times,serif" font-size="14.00">निस्, दुस्,</text>
<text text-anchor="middle" x="757.115" y="-405.8" font-family="Times,serif" font-size="14.00"> बहिस्, आविस्,</text>
<text text-anchor="middle" x="757.115" y="-390.8" font-family="Times,serif" font-size="14.00"> चतुर्, प्रादुस्</text>
<text text-anchor="middle" x="757.115" y="-375.8" font-family="Times,serif" font-size="14.00"> + क/ख/प/फ</text>
</g>
<!-- a5 -->
<g id="node3" class="node"><title>a5</title>
<path fill="white" stroke="white" d="M932.615,-432C932.615,-432 850.615,-432 850.615,-432 844.615,-432 838.615,-426 838.615,-420 838.615,-420 838.615,-408 838.615,-408 838.615,-402 844.615,-396 850.615,-396 850.615,-396 932.615,-396 932.615,-396 938.615,-396 944.615,-402 944.615,-408 944.615,-408 944.615,-420 944.615,-420 944.615,-426 938.615,-432 932.615,-432"/>
<text text-anchor="middle" x="891.615" y="-410.3" font-family="Times,serif" font-size="14.00">नमस्पुरसोर्गत्योः</text>
</g>
<!-- a0&#45;&gt;a5 -->
<g id="edge5" class="edge"><title>a0&#45;&gt;a5</title>
<path fill="none" stroke="black" d="M660.638,-465.88C711.058,-454.506 779.626,-439.038 828.747,-427.957"/>
<polygon fill="black" stroke="black" points="829.626,-431.347 838.611,-425.732 828.085,-424.518 829.626,-431.347"/>
<text text-anchor="middle" x="757.115" y="-457.8" font-family="Times,serif" font-size="14.00">नमस् + कृ</text>
</g>
<!-- a4 -->
<g id="node4" class="node"><title>a4</title>
<path fill="white" stroke="white" d="M935.115,-486C935.115,-486 848.115,-486 848.115,-486 842.115,-486 836.115,-480 836.115,-474 836.115,-474 836.115,-462 836.115,-462 836.115,-456 842.115,-450 848.115,-450 848.115,-450 935.115,-450 935.115,-450 941.115,-450 947.115,-456 947.115,-462 947.115,-462 947.115,-474 947.115,-474 947.115,-480 941.115,-486 935.115,-486"/>
<text text-anchor="middle" x="891.615" y="-464.3" font-family="Times,serif" font-size="14.00">कुप्वोः ≍क≍पौ च</text>
</g>
<!-- a0&#45;&gt;a4 -->
<g id="edge4" class="edge"><title>a0&#45;&gt;a4</title>
<path fill="none" stroke="black" d="M660.638,-478.066C709.994,-475.906 776.741,-472.984 825.613,-470.845"/>
<polygon fill="black" stroke="black" points="825.92,-474.335 835.758,-470.401 825.614,-467.342 825.92,-474.335"/>
<text text-anchor="middle" x="757.115" y="-479.8" font-family="Times,serif" font-size="14.00">क/ख/प/फ</text>
</g>
<!-- a3 -->
<g id="node5" class="node"><title>a3</title>
<path fill="white" stroke="white" d="M1097.12,-537C1097.12,-537 1067.12,-537 1067.12,-537 1061.12,-537 1055.12,-531 1055.12,-525 1055.12,-525 1055.12,-513 1055.12,-513 1055.12,-507 1061.12,-501 1067.12,-501 1067.12,-501 1097.12,-501 1097.12,-501 1103.12,-501 1109.12,-507 1109.12,-513 1109.12,-513 1109.12,-525 1109.12,-525 1109.12,-531 1103.12,-537 1097.12,-537"/>
<text text-anchor="middle" x="1082.12" y="-515.3" font-family="Times,serif" font-size="14.00">वा शरि</text>
</g>
<!-- a0&#45;&gt;a3 -->
<g id="edge3" class="edge"><title>a0&#45;&gt;a3</title>
<path fill="none" stroke="black" stroke-dasharray="5,2" d="M660.762,-488.737C688.862,-491.975 715.115,-495 715.115,-495 715.115,-495 952.798,-510.586 1045.09,-516.637"/>
<polygon fill="black" stroke="black" points="1044.88,-520.131 1055.09,-517.293 1045.34,-513.146 1044.88,-520.131"/>
<text text-anchor="middle" x="891.615" y="-515.8" font-family="Times,serif" font-size="14.00">शरि</text>
</g>
<!-- a2 -->
<g id="node6" class="node"><title>a2</title>
<path fill="white" stroke="white" d="M933.115,-591C933.115,-591 850.115,-591 850.115,-591 844.115,-591 838.115,-585 838.115,-579 838.115,-579 838.115,-567 838.115,-567 838.115,-561 844.115,-555 850.115,-555 850.115,-555 933.115,-555 933.115,-555 939.115,-555 945.115,-561 945.115,-567 945.115,-567 945.115,-579 945.115,-579 945.115,-585 939.115,-591 933.115,-591"/>
<text text-anchor="middle" x="891.615" y="-569.3" font-family="Times,serif" font-size="14.00">शर्परे विसर्जनीयः</text>
</g>
<!-- a0&#45;&gt;a2 -->
<g id="edge2" class="edge"><title>a0&#45;&gt;a2</title>
<path fill="none" stroke="black" d="M641.287,-499.048C675.326,-511.936 715.115,-527 715.115,-527 715.115,-527 777.649,-543.391 828.061,-556.604"/>
<polygon fill="black" stroke="black" points="827.399,-560.049 837.96,-559.198 829.174,-553.277 827.399,-560.049"/>
<text text-anchor="middle" x="757.115" y="-552.8" font-family="Times,serif" font-size="14.00">खरि + शर्</text>
</g>
<!-- a1 -->
<g id="node7" class="node"><title>a1</title>
<g id="a_node7"><a xlink:href="http://avg-sanskrit.org/sutras/8-3-34.html" xlink:title="विसर्जनीयस्य सः">
<path fill="white" stroke="white" d="M933.615,-645C933.615,-645 849.615,-645 849.615,-645 843.615,-645 837.615,-639 837.615,-633 837.615,-633 837.615,-621 837.615,-621 837.615,-615 843.615,-609 849.615,-609 849.615,-609 933.615,-609 933.615,-609 939.615,-609 945.615,-615 945.615,-621 945.615,-621 945.615,-633 945.615,-633 945.615,-639 939.615,-645 933.615,-645"/>
<text text-anchor="middle" x="891.615" y="-623.3" font-family="Times,serif" font-size="14.00">विसर्जनीयस्य सः</text>
</a>
</g>
</g>
<!-- a0&#45;&gt;a1 -->
<g id="edge1" class="edge"><title>a0&#45;&gt;a1</title>
<path fill="none" stroke="black" d="M618.79,-499.026C654.378,-524.509 715.115,-568 715.115,-568 715.115,-568 777.525,-588.981 827.911,-605.92"/>
<polygon fill="black" stroke="black" points="826.889,-609.269 837.483,-609.138 829.12,-602.634 826.889,-609.269"/>
<text text-anchor="middle" x="757.115" y="-598.8" font-family="Times,serif" font-size="14.00">खरि</text>
</g>
<!-- a1&#45;&gt;a3 -->
<g id="edge7" class="edge"><title>a1&#45;&gt;a3</title>
<path fill="none" stroke="black" stroke-dasharray="5,2" d="M941.641,-608.991C955.123,-604.038 966.115,-600 966.115,-600 966.115,-600 984.115,-574 984.115,-574 984.115,-574 1030.12,-546 1030.12,-546 1030.12,-546 1037.21,-542.244 1046.11,-537.533"/>
<polygon fill="black" stroke="black" points="1047.82,-540.589 1055.02,-532.816 1044.54,-534.402 1047.82,-540.589"/>
<text text-anchor="middle" x="998.115" y="-577.8" font-family="Times,serif" font-size="14.00">शरि</text>
</g>
<!-- a7 -->
<g id="node8" class="node"><title>a7</title>
<path fill="white" stroke="white" d="M1122.12,-591C1122.12,-591 1042.12,-591 1042.12,-591 1036.12,-591 1030.12,-585 1030.12,-579 1030.12,-579 1030.12,-567 1030.12,-567 1030.12,-561 1036.12,-555 1042.12,-555 1042.12,-555 1122.12,-555 1122.12,-555 1128.12,-555 1134.12,-561 1134.12,-567 1134.12,-567 1134.12,-579 1134.12,-579 1134.12,-585 1128.12,-591 1122.12,-591"/>
<text text-anchor="middle" x="1082.12" y="-569.3" font-family="Times,serif" font-size="14.00">स्तोः श्चुना श्चुः</text>
</g>
<!-- a1&#45;&gt;a7 -->
<g id="edge8" class="edge"><title>a1&#45;&gt;a7</title>
<path fill="none" stroke="black" d="M945.625,-611.814C968.786,-605.179 996.086,-597.359 1020.09,-590.482"/>
<polygon fill="black" stroke="black" points="1021.15,-593.818 1029.8,-587.699 1019.23,-587.089 1021.15,-593.818"/>
<text text-anchor="middle" x="998.115" y="-603.8" font-family="Times,serif" font-size="14.00">च्/छ्</text>
</g>
<!-- a8 -->
<g id="node9" class="node"><title>a8</title>
<path fill="white" stroke="white" d="M1104.12,-645C1104.12,-645 1060.12,-645 1060.12,-645 1054.12,-645 1048.12,-639 1048.12,-633 1048.12,-633 1048.12,-621 1048.12,-621 1048.12,-615 1054.12,-609 1060.12,-609 1060.12,-609 1104.12,-609 1104.12,-609 1110.12,-609 1116.12,-615 1116.12,-621 1116.12,-621 1116.12,-633 1116.12,-633 1116.12,-639 1110.12,-645 1104.12,-645"/>
<text text-anchor="middle" x="1082.12" y="-623.3" font-family="Times,serif" font-size="14.00">ष्टुना ष्टुः</text>
</g>
<!-- a1&#45;&gt;a8 -->
<g id="edge9" class="edge"><title>a1&#45;&gt;a8</title>
<path fill="none" stroke="black" d="M945.625,-627C974.785,-627 1010.51,-627 1037.95,-627"/>
<polygon fill="black" stroke="black" points="1038.03,-630.5 1048.03,-627 1038.03,-623.5 1038.03,-630.5"/>
<text text-anchor="middle" x="998.115" y="-630.8" font-family="Times,serif" font-size="14.00">ट्/ठ्</text>
</g>
<!-- b0 -->
<g id="node10" class="node"><title>b0</title>
<path fill="grey" stroke="grey" d="M664.615,-295C664.615,-295 520.615,-295 520.615,-295 514.615,-295 508.615,-289 508.615,-283 508.615,-283 508.615,-271 508.615,-271 508.615,-265 514.615,-259 520.615,-259 520.615,-259 664.615,-259 664.615,-259 670.615,-259 676.615,-265 676.615,-271 676.615,-271 676.615,-283 676.615,-283 676.615,-289 670.615,-295 664.615,-295"/>
<text text-anchor="middle" x="592.615" y="-273.3" font-family="Times,serif" font-size="14.00">भोभगोअघोअपूर्वस्य यो ऽशि</text>
</g>
<!-- b3 -->
<g id="node13" class="node"><title>b3</title>
<path fill="grey" stroke="grey" d="M933.615,-241C933.615,-241 849.615,-241 849.615,-241 843.615,-241 837.615,-235 837.615,-229 837.615,-229 837.615,-217 837.615,-217 837.615,-211 843.615,-205 849.615,-205 849.615,-205 933.615,-205 933.615,-205 939.615,-205 945.615,-211 945.615,-217 945.615,-217 945.615,-229 945.615,-229 945.615,-235 939.615,-241 933.615,-241"/>
<text text-anchor="middle" x="891.615" y="-219.3" font-family="Times,serif" font-size="14.00">लोपः शाकल्यस्य</text>
</g>
<!-- b0&#45;&gt;b3 -->
<g id="edge10" class="edge"><title>b0&#45;&gt;b3</title>
<path fill="none" stroke="black" stroke-dasharray="5,2" d="M676.741,-261.886C724.503,-253.202 783.538,-242.469 827.476,-234.48"/>
<polygon fill="black" stroke="black" points="828.244,-237.898 837.456,-232.665 826.991,-231.011 828.244,-237.898"/>
<text text-anchor="middle" x="757.115" y="-258.8" font-family="Times,serif" font-size="14.00">अ + अचि</text>
</g>
<!-- b4 -->
<g id="node14" class="node"><title>b4</title>
<path fill="grey" stroke="grey" d="M922.115,-295C922.115,-295 861.115,-295 861.115,-295 855.115,-295 849.115,-289 849.115,-283 849.115,-283 849.115,-271 849.115,-271 849.115,-265 855.115,-259 861.115,-259 861.115,-259 922.115,-259 922.115,-259 928.115,-259 934.115,-265 934.115,-271 934.115,-271 934.115,-283 934.115,-283 934.115,-289 928.115,-295 922.115,-295"/>
<text text-anchor="middle" x="891.615" y="-273.3" font-family="Times,serif" font-size="14.00">हलि सर्वेषाम्</text>
</g>
<!-- b0&#45;&gt;b4 -->
<g id="edge11" class="edge"><title>b0&#45;&gt;b4</title>
<path fill="none" stroke="black" d="M676.741,-277C728.802,-277 794.255,-277 838.953,-277"/>
<polygon fill="black" stroke="black" points="839.004,-280.5 849.004,-277 839.004,-273.5 839.004,-280.5"/>
<text text-anchor="middle" x="757.115" y="-280.8" font-family="Times,serif" font-size="14.00">अ + हशि</text>
</g>
<!-- b1 -->
<g id="node11" class="node"><title>b1</title>
<path fill="grey" stroke="grey" d="M642.615,-241C642.615,-241 542.615,-241 542.615,-241 536.615,-241 530.615,-235 530.615,-229 530.615,-229 530.615,-217 530.615,-217 530.615,-211 536.615,-205 542.615,-205 542.615,-205 642.615,-205 642.615,-205 648.615,-205 654.615,-211 654.615,-217 654.615,-217 654.615,-229 654.615,-229 654.615,-235 648.615,-241 642.615,-241"/>
<text text-anchor="middle" x="592.615" y="-219.3" font-family="Times,serif" font-size="14.00">अतो रोरप्लुतादप्लुते</text>
</g>
<!-- b2 -->
<g id="node12" class="node"><title>b2</title>
<path fill="grey" stroke="grey" d="M608.115,-187C608.115,-187 577.115,-187 577.115,-187 571.115,-187 565.115,-181 565.115,-175 565.115,-175 565.115,-163 565.115,-163 565.115,-157 571.115,-151 577.115,-151 577.115,-151 608.115,-151 608.115,-151 614.115,-151 620.115,-157 620.115,-163 620.115,-163 620.115,-175 620.115,-175 620.115,-181 614.115,-187 608.115,-187"/>
<text text-anchor="middle" x="592.615" y="-165.3" font-family="Times,serif" font-size="14.00">हशि च</text>
</g>
<!-- c0 -->
<g id="node15" class="node"><title>c0</title>
<path fill="cyan" stroke="cyan" d="M655.615,-133C655.615,-133 529.615,-133 529.615,-133 523.615,-133 517.615,-127 517.615,-121 517.615,-121 517.615,-107 517.615,-107 517.615,-101 523.615,-95 529.615,-95 529.615,-95 655.615,-95 655.615,-95 661.615,-95 667.615,-101 667.615,-107 667.615,-107 667.615,-121 667.615,-121 667.615,-127 661.615,-133 655.615,-133"/>
<text text-anchor="middle" x="592.615" y="-117.8" font-family="Times,serif" font-size="14.00">रो रि;</text>
<text text-anchor="middle" x="592.615" y="-102.8" font-family="Times,serif" font-size="14.00"> ढ्रलोपे पूर्वस्य दीर्घोऽणः</text>
</g>
<!-- d0 -->
<g id="node16" class="node"><title>d0</title>
<path fill="orange" stroke="orange" d="M685.115,-77C685.115,-77 500.115,-77 500.115,-77 494.115,-77 488.115,-71 488.115,-65 488.115,-65 488.115,-53 488.115,-53 488.115,-47 494.115,-41 500.115,-41 500.115,-41 685.115,-41 685.115,-41 691.115,-41 697.115,-47 697.115,-53 697.115,-53 697.115,-65 697.115,-65 697.115,-71 691.115,-77 685.115,-77"/>
<text text-anchor="middle" x="592.615" y="-55.3" font-family="Times,serif" font-size="14.00">एतत्तदोः सुलोपोऽकोरनञ्समासे हलि</text>
</g>
<!-- start0 -->
<g id="node17" class="node"><title>start0</title>
<path fill="none" stroke="black" d="M91.0579,-178.055C91.0579,-178.055 95.5322,-178.142 95.5322,-178.142 95.6867,-178.145 95.9956,-178.152 96.15,-178.157 96.15,-178.157 100.572,-178.286 100.572,-178.286 100.726,-178.291 101.035,-178.301 101.189,-178.308 101.189,-178.308 105.538,-178.479 105.538,-178.479 105.693,-178.485 106.001,-178.499 106.156,-178.507 106.156,-178.507 110.411,-178.72 110.411,-178.72 110.566,-178.728 110.874,-178.745 111.028,-178.754 111.028,-178.754 115.172,-179.008 115.172,-179.008 115.326,-179.017 115.634,-179.038 115.788,-179.049 115.788,-179.049 119.8,-179.342 119.8,-179.342 119.954,-179.353 120.262,-179.378 120.416,-179.391 120.416,-179.391 124.279,-179.722 124.279,-179.722 124.433,-179.735 124.741,-179.763 124.895,-179.778 124.895,-179.778 128.592,-180.145 128.592,-180.145 128.745,-180.161 129.053,-180.193 129.206,-180.211 129.206,-180.211 132.721,-180.612 132.721,-180.612 132.875,-180.63 133.182,-180.667 133.335,-180.687 133.335,-180.687 136.654,-181.121 136.654,-181.121 136.807,-181.141 137.113,-181.183 137.266,-181.206 137.266,-181.206 140.375,-181.669 140.375,-181.669 140.528,-181.692 140.833,-181.741 140.985,-181.766 140.985,-181.766 143.873,-182.256 143.873,-182.256 144.025,-182.282 144.329,-182.337 144.481,-182.367 144.481,-182.367 147.136,-182.88 147.136,-182.88 147.287,-182.909 147.59,-182.972 147.741,-183.005 147.741,-183.005 150.155,-183.539 150.155,-183.539 150.306,-183.572 150.606,-183.643 150.756,-183.681 150.756,-183.681 152.922,-184.23 152.922,-184.23 153.072,-184.268 153.37,-184.349 153.518,-184.393 153.518,-184.393 155.43,-184.952 155.43,-184.952 155.579,-184.995 155.873,-185.088 156.019,-185.138 156.019,-185.138 157.675,-185.702 157.675,-185.702 157.821,-185.751 158.111,-185.859 158.254,-185.916 158.254,-185.916 159.652,-186.477 159.652,-186.477 159.795,-186.534 160.078,-186.659 160.217,-186.726 160.217,-186.726 161.36,-187.274 161.36,-187.274 161.5,-187.341 161.772,-187.487 161.905,-187.565 161.905,-187.565 162.8,-188.091 162.8,-188.091 162.934,-188.17 163.191,-188.34 163.314,-188.433 163.314,-188.433 163.975,-188.925 163.975,-188.925 164.098,-189.017 164.332,-189.218 164.441,-189.327 164.441,-189.327 164.888,-189.772 164.888,-189.772 164.998,-189.88 165.195,-190.117 165.282,-190.244 165.282,-190.244 165.549,-190.631 165.549,-190.631 165.637,-190.759 165.78,-191.03 165.836,-191.174 165.836,-191.174 165.966,-191.509 165.966,-191.509 166.022,-191.653 166.094,-191.95 166.11,-192.104 166.11,-192.104 166.141,-192.411 166.141,-192.411 166.157,-192.565 166.147,-192.871 166.122,-193.023 166.122,-193.023 166.067,-193.345 166.067,-193.345 166.042,-193.497 165.955,-193.792 165.894,-193.934 165.894,-193.934 165.736,-194.303 165.736,-194.303 165.675,-194.445 165.527,-194.715 165.44,-194.843 165.44,-194.843 165.149,-195.273 165.149,-195.273 165.062,-195.401 164.87,-195.642 164.766,-195.756 164.766,-195.756 164.317,-196.244 164.317,-196.244 164.213,-196.358 163.991,-196.573 163.874,-196.674 163.874,-196.674 163.256,-197.21 163.256,-197.21 163.139,-197.312 162.897,-197.503 162.772,-197.594 162.772,-197.594 161.978,-198.169 161.978,-198.169 161.853,-198.26 161.597,-198.432 161.466,-198.514 161.466,-198.514 160.498,-199.118 160.498,-199.118 160.367,-199.2 160.1,-199.356 159.965,-199.43 159.965,-199.43 158.827,-200.055 158.827,-200.055 158.692,-200.129 158.418,-200.272 158.279,-200.34 158.279,-200.34 156.978,-200.978 156.978,-200.978 156.84,-201.046 156.56,-201.177 156.419,-201.239 156.419,-201.239 154.963,-201.885 154.963,-201.885 154.822,-201.948 154.538,-202.069 154.394,-202.127 154.394,-202.127 152.794,-202.775 152.794,-202.775 152.65,-202.833 152.362,-202.945 152.218,-202.998 152.218,-202.998 150.481,-203.644 150.481,-203.644 150.336,-203.698 150.045,-203.802 149.899,-203.852 149.899,-203.852 148.036,-204.491 148.036,-204.491 147.89,-204.542 147.597,-204.639 147.45,-204.685 147.45,-204.685 145.471,-205.315 145.471,-205.315 145.324,-205.361 145.029,-205.452 144.881,-205.496 144.881,-205.496 142.796,-206.111 142.796,-206.111 142.648,-206.155 142.351,-206.24 142.202,-206.281 142.202,-206.281 140.022,-206.88 140.022,-206.88 139.873,-206.921 139.574,-207 139.424,-207.038 139.424,-207.038 137.157,-207.618 137.157,-207.618 137.008,-207.656 136.708,-207.73 136.557,-207.766 136.557,-207.766 134.212,-208.323 134.212,-208.323 134.062,-208.359 133.761,-208.428 133.61,-208.461 133.61,-208.461 131.196,-208.995 131.196,-208.995 131.045,-209.028 130.743,-209.092 130.591,-209.123 130.591,-209.123 128.116,-209.63 128.116,-209.63 127.965,-209.661 127.662,-209.721 127.51,-209.749 127.51,-209.749 124.981,-210.228 124.981,-210.228 124.829,-210.257 124.525,-210.312 124.373,-210.338 124.373,-210.338 121.797,-210.786 121.797,-210.786 121.645,-210.813 121.34,-210.864 121.188,-210.888 121.188,-210.888 118.572,-211.304 118.572,-211.304 118.419,-211.329 118.114,-211.375 117.961,-211.397 117.961,-211.397 115.31,-211.78 115.31,-211.78 115.157,-211.802 114.851,-211.844 114.698,-211.864 114.698,-211.864 112.018,-212.212 112.018,-212.212 111.865,-212.232 111.558,-212.27 111.405,-212.288 111.405,-212.288 108.7,-212.6 108.7,-212.6 108.547,-212.618 108.24,-212.651 108.086,-212.667 108.086,-212.667 105.361,-212.942 105.361,-212.942 105.207,-212.958 104.9,-212.987 104.746,-213 104.746,-213 102.004,-213.238 102.004,-213.238 101.85,-213.251 101.542,-213.276 101.388,-213.287 101.388,-213.287 98.6336,-213.486 98.6336,-213.486 98.4795,-213.498 98.1712,-213.518 98.017,-213.527 98.017,-213.527 95.2519,-213.687 95.2519,-213.687 95.0976,-213.696 94.789,-213.711 94.6347,-213.718 94.6347,-213.718 91.8618,-213.839 91.8618,-213.839 91.7075,-213.845 91.3987,-213.857 91.2442,-213.861 91.2442,-213.861 88.466,-213.942 88.466,-213.942 88.3116,-213.946 88.0027,-213.953 87.8482,-213.955 87.8482,-213.955 85.0669,-213.996 85.0669,-213.996 84.9124,-213.998 84.6034,-214 84.4489,-214 84.4489,-214 81.6665,-214 81.6665,-214 81.512,-214 81.203,-213.998 81.0486,-213.996 81.0486,-213.996 78.2672,-213.955 78.2672,-213.955 78.1127,-213.953 77.8038,-213.946 77.6494,-213.942 77.6494,-213.942 74.8712,-213.861 74.8712,-213.861 74.7167,-213.857 74.408,-213.845 74.2536,-213.839 74.2536,-213.839 71.4807,-213.718 71.4807,-213.718 71.3264,-213.711 71.0178,-213.696 70.8636,-213.687 70.8636,-213.687 68.0984,-213.527 68.0984,-213.527 67.9442,-213.518 67.6359,-213.498 67.4818,-213.486 67.4818,-213.486 64.727,-213.287 64.727,-213.287 64.5729,-213.276 64.2649,-213.251 64.111,-213.238 64.111,-213.238 61.3696,-213 61.3696,-213 61.2156,-212.987 60.908,-212.958 60.7543,-212.942 60.7543,-212.942 58.0295,-212.667 58.0295,-212.667 57.8758,-212.651 57.5686,-212.618 57.4151,-212.6 57.4151,-212.6 54.7107,-212.288 54.7107,-212.288 54.5572,-212.27 54.2506,-212.232 54.0973,-212.212 54.0973,-212.212 51.4175,-211.864 51.4175,-211.864 51.2643,-211.844 50.9582,-211.802 50.8053,-211.78 50.8053,-211.78 48.1547,-211.397 48.1547,-211.397 48.0018,-211.375 47.6963,-211.329 47.5438,-211.304 47.5438,-211.304 44.9278,-210.888 44.9278,-210.888 44.7752,-210.864 44.4704,-210.813 44.3182,-210.786 44.3182,-210.786 41.7425,-210.338 41.7425,-210.338 41.5903,-210.312 41.2863,-210.257 41.1345,-210.228 41.1345,-210.228 38.6056,-209.749 38.6056,-209.749 38.4537,-209.721 38.1506,-209.661 37.9992,-209.63 37.9992,-209.63 35.524,-209.123 35.524,-209.123 35.3726,-209.092 35.0704,-209.028 34.9195,-208.995 34.9195,-208.995 32.5054,-208.461 32.5054,-208.461 32.3546,-208.428 32.0534,-208.359 31.9031,-208.323 31.9031,-208.323 29.5582,-207.766 29.5582,-207.766 29.4079,-207.73 29.1079,-207.656 28.9582,-207.618 28.9582,-207.618 26.6911,-207.038 26.6911,-207.038 26.5414,-207 26.2427,-206.921 26.0937,-206.88 26.0937,-206.88 23.9134,-206.281 23.9134,-206.281 23.7644,-206.24 23.4672,-206.155 23.3191,-206.111 23.3191,-206.111 21.2348,-205.496 21.2348,-205.496 21.0867,-205.452 20.7913,-205.361 20.644,-205.315 20.644,-205.315 18.6657,-204.685 18.6657,-204.685 18.5185,-204.639 18.2251,-204.542 18.079,-204.491 18.079,-204.491 16.2164,-203.852 16.2164,-203.852 16.0703,-203.802 15.7794,-203.698 15.6346,-203.644 15.6346,-203.644 13.8979,-202.998 13.8979,-202.998 13.7531,-202.945 13.4651,-202.833 13.3219,-202.775 13.3219,-202.775 11.721,-202.127 11.721,-202.127 11.5778,-202.069 11.2934,-201.948 11.1521,-201.885 11.1521,-201.885 9.69681,-201.239 9.69681,-201.239 9.55559,-201.177 9.27568,-201.046 9.13698,-200.978 9.13698,-200.978 7.83635,-200.34 7.83635,-200.34 7.69765,-200.272 7.42353,-200.129 7.2881,-200.055 7.2881,-200.055 6.15043,-199.43 6.15043,-199.43 6.01501,-199.356 5.74851,-199.2 5.61743,-199.118 5.61743,-199.118 4.64951,-198.514 4.64951,-198.514 4.51843,-198.432 4.26224,-198.26 4.13712,-198.169 4.13712,-198.169 3.34338,-197.594 3.34338,-197.594 3.21827,-197.503 2.97642,-197.312 2.85969,-197.21 2.85969,-197.21 2.24092,-196.674 2.24092,-196.674 2.1242,-196.573 1.90288,-196.358 1.79829,-196.244 1.79829,-196.244 1.34957,-195.756 1.34957,-195.756 1.24498,-195.642 1.05362,-195.401 0.966849,-195.273 0.966849,-195.273 0.674927,-194.843 0.674927,-194.843 0.588159,-194.715 0.440497,-194.445 0.379602,-194.303 0.379602,-194.303 0.221112,-193.934 0.221112,-193.934 0.160218,-193.792 0.0736234,-193.497 0.0479234,-193.345 0.0479234,-193.345 -0.00634693,-193.023 -0.00634693,-193.023 -0.0320469,-192.871 -0.0418917,-192.565 -0.0260364,-192.411 -0.0260364,-192.411 0.0056742,-192.104 0.0056742,-192.104 0.0215295,-191.95 0.0933091,-191.653 0.149233,-191.509 0.149233,-191.509 0.279117,-191.174 0.279117,-191.174 0.335041,-191.03 0.478575,-190.759 0.566184,-190.631 0.566184,-190.631 0.832976,-190.244 0.832976,-190.244 0.920585,-190.117 1.11774,-189.88 1.22729,-189.772 1.22729,-189.772 1.67405,-189.327 1.67405,-189.327 1.7836,-189.218 2.01702,-189.017 2.1409,-188.925 2.1409,-188.925 2.80092,-188.433 2.80092,-188.433 2.9248,-188.34 3.18184,-188.17 3.31501,-188.091 3.31501,-188.091 4.21008,-187.565 4.21008,-187.565 4.34324,-187.487 4.61568,-187.341 4.75495,-187.274 4.75495,-187.274 5.89804,-186.726 5.89804,-186.726 6.03732,-186.659 6.31999,-186.534 6.46339,-186.477 6.46339,-186.477 7.86134,-185.916 7.86134,-185.916 8.00474,-185.859 8.29439,-185.751 8.44065,-185.702 8.44065,-185.702 10.096,-185.138 10.096,-185.138 10.2423,-185.088 10.5368,-184.995 10.6851,-184.952 10.6851,-184.952 12.5973,-184.393 12.5973,-184.393 12.7456,-184.349 13.0436,-184.268 13.1934,-184.23 13.1934,-184.23 15.3592,-183.681 15.3592,-183.681 15.5089,-183.643 15.8096,-183.572 15.9604,-183.539 15.9604,-183.539 18.3745,-183.005 18.3745,-183.005 18.5254,-182.972 18.8279,-182.909 18.9796,-182.88 18.9796,-182.88 21.6349,-182.367 21.6349,-182.367 21.7865,-182.337 22.0906,-182.282 22.2429,-182.256 22.2429,-182.256 25.1303,-181.766 25.1303,-181.766 25.2826,-181.741 25.5878,-181.692 25.7406,-181.669 25.7406,-181.669 28.8497,-181.206 28.8497,-181.206 29.0025,-181.183 29.3085,-181.141 29.4617,-181.121 29.4617,-181.121 32.7806,-180.687 32.7806,-180.687 32.9338,-180.667 33.2405,-180.63 33.394,-180.612 33.394,-180.612 36.9093,-180.211 36.9093,-180.211 37.0628,-180.193 37.37,-180.161 37.5237,-180.145 37.5237,-180.145 41.2208,-179.778 41.2208,-179.778 41.3745,-179.763 41.6822,-179.735 41.8361,-179.722 41.8361,-179.722 45.6991,-179.391 45.6991,-179.391 45.853,-179.378 46.1611,-179.353 46.3151,-179.342 46.3151,-179.342 50.3272,-179.049 50.3272,-179.049 50.4813,-179.038 50.7896,-179.017 50.9438,-179.008 50.9438,-179.008 55.087,-178.754 55.087,-178.754 55.2412,-178.745 55.5497,-178.728 55.704,-178.72 55.704,-178.72 59.9598,-178.507 59.9598,-178.507 60.1141,-178.499 60.4228,-178.485 60.5771,-178.479 60.5771,-178.479 64.926,-178.308 64.926,-178.308 65.0803,-178.301 65.3891,-178.291 65.5436,-178.286 65.5436,-178.286 69.9654,-178.157 69.9654,-178.157 70.1198,-178.152 70.4287,-178.145 70.5832,-178.142 70.5832,-178.142 75.0576,-178.055 75.0576,-178.055 75.212,-178.052 75.521,-178.048 75.6755,-178.046 75.6755,-178.046 80.1815,-178.003 80.1815,-178.003 80.3359,-178.001 80.6449,-178 80.7994,-178 80.7994,-178 85.316,-178 85.316,-178 85.4705,-178 85.7795,-178.001 85.934,-178.003 85.934,-178.003 90.4399,-178.046 90.4399,-178.046 90.5944,-178.048 90.9034,-178.052 91.0579,-178.055"/>
<text text-anchor="middle" x="83.0577" y="-192.3" font-family="Times,serif" font-size="14.00">&lt;पदम्&gt;: + &lt;पदम्&gt;</text>
</g>
<!-- start1 -->
<g id="node18" class="node"><title>start1</title>
<g id="a_node18"><a xlink:href="http://avg-sanskrit.org/sutras/8-2-66.html" xlink:title="ससजुषो रुः">
<path fill="none" stroke="black" d="M352.115,-214C352.115,-214 299.115,-214 299.115,-214 293.115,-214 287.115,-208 287.115,-202 287.115,-202 287.115,-190 287.115,-190 287.115,-184 293.115,-178 299.115,-178 299.115,-178 352.115,-178 352.115,-178 358.115,-178 364.115,-184 364.115,-190 364.115,-190 364.115,-202 364.115,-202 364.115,-208 358.115,-214 352.115,-214"/>
<text text-anchor="middle" x="325.615" y="-192.3" font-family="Times,serif" font-size="14.00">ससजुषो रुः</text>
</a>
</g>
</g>
<!-- start0&#45;&gt;start1 -->
<g id="edge12" class="edge"><title>start0&#45;&gt;start1</title>
<path fill="none" stroke="black" d="M164.829,-196C201.864,-196 244.52,-196 276.438,-196"/>
<polygon fill="black" stroke="black" points="276.828,-199.5 286.828,-196 276.828,-192.5 276.828,-199.5"/>
</g>
<!-- start1&#45;&gt;a0 -->
<g id="edge13" class="edge"><title>start1&#45;&gt;a0</title>
<path fill="none" stroke="black" d="M340.335,-214.045C356.77,-235.662 382.115,-269 382.115,-269 382.115,-269 510.709,-399.128 566.4,-455.484"/>
<polygon fill="black" stroke="black" points="564.235,-458.272 573.754,-462.925 569.214,-453.352 564.235,-458.272"/>
</g>
<!-- start1&#45;&gt;b0 -->
<g id="edge14" class="edge"><title>start1&#45;&gt;b0</title>
<path fill="none" stroke="black" d="M356.315,-214.194C369.511,-222.278 382.115,-230 382.115,-230 382.115,-230 444.687,-244.038 501.439,-256.769"/>
<polygon fill="black" stroke="black" points="500.693,-260.189 511.216,-258.963 502.225,-253.359 500.693,-260.189"/>
<text text-anchor="middle" x="426.115" y="-253.8" font-family="Times,serif" font-size="14.00">अ + अशि</text>
</g>
<!-- start1&#45;&gt;b1 -->
<g id="edge15" class="edge"><title>start1&#45;&gt;b1</title>
<path fill="none" stroke="black" d="M364.302,-199.84C404.808,-203.967 470.141,-210.623 520.392,-215.743"/>
<polygon fill="black" stroke="black" points="520.247,-219.247 530.551,-216.778 520.957,-212.283 520.247,-219.247"/>
<text text-anchor="middle" x="426.115" y="-214.8" font-family="Times,serif" font-size="14.00">अतः + अति</text>
</g>
<!-- start1&#45;&gt;b2 -->
<g id="edge16" class="edge"><title>start1&#45;&gt;b2</title>
<path fill="none" stroke="black" d="M364.249,-187.185C374.147,-184.866 382.115,-183 382.115,-183 382.115,-183 494.774,-175.471 554.863,-171.456"/>
<polygon fill="black" stroke="black" points="555.338,-174.932 565.082,-170.773 554.871,-167.948 555.338,-174.932"/>
<text text-anchor="middle" x="426.115" y="-186.8" font-family="Times,serif" font-size="14.00">अतः + हशि</text>
</g>
<!-- start1&#45;&gt;c0 -->
<g id="edge17" class="edge"><title>start1&#45;&gt;c0</title>
<path fill="none" stroke="black" d="M353.715,-177.934C367.803,-168.541 382.115,-159 382.115,-159 382.115,-159 449.205,-144.589 507.453,-132.078"/>
<polygon fill="black" stroke="black" points="508.417,-135.451 517.459,-129.929 506.947,-128.607 508.417,-135.451"/>
<text text-anchor="middle" x="426.115" y="-162.8" font-family="Times,serif" font-size="14.00">एतत्तदोः + हलि</text>
</g>
<!-- start1&#45;&gt;d0 -->
<g id="edge18" class="edge"><title>start1&#45;&gt;d0</title>
<path fill="none" stroke="black" d="M340.335,-177.708C356.77,-155.794 382.115,-122 382.115,-122 382.115,-122 488.115,-86 488.115,-86 488.115,-86 498.531,-83.2829 512.754,-79.5725"/>
<polygon fill="black" stroke="black" points="513.787,-82.9203 522.579,-77.0094 512.02,-76.147 513.787,-82.9203"/>
<text text-anchor="middle" x="426.115" y="-125.8" font-family="Times,serif" font-size="14.00">इण्‌ + रः + रि </text>
</g>
<!-- legend1 -->
<g id="node19" class="node"><title>legend1</title>
<path fill="none" stroke="black" d="M98.0577,-486C98.0577,-486 68.0577,-486 68.0577,-486 62.0577,-486 56.0577,-480 56.0577,-474 56.0577,-474 56.0577,-462 56.0577,-462 56.0577,-456 62.0577,-450 68.0577,-450 68.0577,-450 98.0577,-450 98.0577,-450 104.058,-450 110.058,-456 110.058,-462 110.058,-462 110.058,-474 110.058,-474 110.058,-480 104.058,-486 98.0577,-486"/>
</g>
<!-- legend2 -->
<g id="node20" class="node"><title>legend2</title>
<path fill="none" stroke="black" d="M340.615,-486C340.615,-486 310.615,-486 310.615,-486 304.615,-486 298.615,-480 298.615,-474 298.615,-474 298.615,-462 298.615,-462 298.615,-456 304.615,-450 310.615,-450 310.615,-450 340.615,-450 340.615,-450 346.615,-450 352.615,-456 352.615,-462 352.615,-462 352.615,-474 352.615,-474 352.615,-480 346.615,-486 340.615,-486"/>
</g>
<!-- legend1&#45;&gt;legend2 -->
<g id="edge19" class="edge"><title>legend1&#45;&gt;legend2</title>
<path fill="none" stroke="black" stroke-dasharray="5,2" d="M110.26,-468C153.37,-468 239.347,-468 288.3,-468"/>
<polygon fill="black" stroke="black" points="288.446,-471.5 298.446,-468 288.446,-464.5 288.446,-471.5"/>
<text text-anchor="middle" x="226.615" y="-471.8" font-family="Times,serif" font-size="14.00">वैकल्पिकसूत्रम्</text>
</g>
<!-- legend3 -->
<g id="node21" class="node"><title>legend3</title>
<path fill="none" stroke="black" d="M98.0577,-432C98.0577,-432 68.0577,-432 68.0577,-432 62.0577,-432 56.0577,-426 56.0577,-420 56.0577,-420 56.0577,-408 56.0577,-408 56.0577,-402 62.0577,-396 68.0577,-396 68.0577,-396 98.0577,-396 98.0577,-396 104.058,-396 110.058,-402 110.058,-408 110.058,-408 110.058,-420 110.058,-420 110.058,-426 104.058,-432 98.0577,-432"/>
</g>
<!-- legend4 -->
<g id="node22" class="node"><title>legend4</title>
<path fill="none" stroke="black" d="M340.615,-432C340.615,-432 310.615,-432 310.615,-432 304.615,-432 298.615,-426 298.615,-420 298.615,-420 298.615,-408 298.615,-408 298.615,-402 304.615,-396 310.615,-396 310.615,-396 340.615,-396 340.615,-396 346.615,-396 352.615,-402 352.615,-408 352.615,-408 352.615,-420 352.615,-420 352.615,-426 346.615,-432 340.615,-432"/>
</g>
<!-- legend3&#45;&gt;legend4 -->
<g id="edge20" class="edge"><title>legend3&#45;&gt;legend4</title>
<path fill="none" stroke="black" d="M110.26,-414C153.37,-414 239.347,-414 288.3,-414"/>
<polygon fill="black" stroke="black" points="288.446,-417.5 298.446,-414 288.446,-410.5 288.446,-417.5"/>
<text text-anchor="middle" x="226.615" y="-417.8" font-family="Times,serif" font-size="14.00">नित्यसूत्रम्</text>
</g>
</g>
</svg>
